<?xml version="1.0" encoding="UTF-8" standalone="no"?>
<!-- Created with Inkscape (http://www.inkscape.org/) -->

<svg
   xmlns:dc="http://purl.org/dc/elements/1.1/"
   xmlns:cc="http://creativecommons.org/ns#"
   xmlns:rdf="http://www.w3.org/1999/02/22-rdf-syntax-ns#"
   xmlns:svg="http://www.w3.org/2000/svg"
   xmlns="http://www.w3.org/2000/svg"
   xmlns:sodipodi="http://sodipodi.sourceforge.net/DTD/sodipodi-0.dtd"
   xmlns:inkscape="http://www.inkscape.org/namespaces/inkscape"
   width="256"
   height="256"
   viewBox="0 0 67.733335 67.733335"
   version="1.1"
   id="svg974"
   inkscape:version="0.92.3 (2405546, 2018-03-11)"
   sodipodi:docname="icon.svg">
  <defs
     id="defs968" />
  <sodipodi:namedview
     id="base"
     pagecolor="#ffffff"
     bordercolor="#666666"
     borderopacity="1.0"
     inkscape:pageopacity="0.0"
     inkscape:pageshadow="2"
     inkscape:zoom="1.979899"
     inkscape:cx="82.772846"
     inkscape:cy="164.06913"
     inkscape:document-units="mm"
     inkscape:current-layer="layer1"
     showgrid="false"
     fit-margin-top="12"
     fit-margin-left="12"
     fit-margin-right="12"
     fit-margin-bottom="12"
     inkscape:window-width="3440"
     inkscape:window-height="1382"
     inkscape:window-x="0"
     inkscape:window-y="28"
     inkscape:window-maximized="1"
     units="px" />
  <metadata
     id="metadata971">
    <rdf:RDF>
      <cc:Work
         rdf:about="">
        <dc:format>image/svg+xml</dc:format>
        <dc:type
           rdf:resource="http://purl.org/dc/dcmitype/StillImage" />
        <dc:title></dc:title>
      </cc:Work>
    </rdf:RDF>
  </metadata>
  <g
     inkscape:label="Layer 1"
     inkscape:groupmode="layer"
     id="layer1"
     transform="translate(-43.240477,-107.40714)">
    <g
       transform="matrix(0.26458333,0,0,0.26458333,32.635448,92.055754)"
       style="clip-rule:evenodd;fill-rule:evenodd;stroke-linejoin:round;stroke-miterlimit:1.41420996"
       id="g73">
      <g
         id="g65">
        <path
           inkscape:connector-curvature="0"
           d="m 280.884,219.245 c 1.765,0 3.198,-1.433 3.198,-3.198 v -6.395 c 0,-1.765 -1.433,-3.197 -3.198,-3.197 H 55.279 c -1.764,0 -3.197,1.432 -3.197,3.197 v 6.395 c 0,1.765 1.433,3.198 3.197,3.198 z"
           style="fill:#8c8c8c"
           id="path45" />
        <path
           inkscape:connector-curvature="0"
           d="m 280.884,165.588 c 1.765,0 3.198,-1.433 3.198,-3.198 v -6.395 c 0,-1.765 -1.433,-3.197 -3.198,-3.197 H 55.279 c -1.764,0 -3.197,1.432 -3.197,3.197 v 6.395 c 0,1.765 1.433,3.198 3.197,3.198 z"
           style="fill:#8c8c8c"
           id="path47" />
        <path
           inkscape:connector-curvature="0"
           d="m 280.884,192.416 c 1.765,0 3.198,-1.432 3.198,-3.197 v -6.395 c 0,-1.765 -1.433,-3.198 -3.198,-3.198 H 55.279 c -1.764,0 -3.197,1.433 -3.197,3.198 v 6.395 c 0,1.765 1.433,3.197 3.197,3.197 z"
           style="fill:#8c8c8c"
           id="path49" />
        <path
           inkscape:connector-curvature="0"
           d="m 280.884,138.759 c 1.765,0 3.198,-1.432 3.198,-3.197 v -6.395 c 0,-1.765 -1.433,-3.198 -3.198,-3.198 H 55.279 c -1.764,0 -3.197,1.433 -3.197,3.198 v 6.395 c 0,1.765 1.433,3.197 3.197,3.197 z"
           style="fill:#8c8c8c"
           id="path51" />
        <path
           inkscape:connector-curvature="0"
           d="m 280.884,246.074 c 1.765,0 3.198,-1.433 3.198,-3.198 v -6.395 c 0,-1.765 -1.433,-3.198 -3.198,-3.198 H 55.279 c -1.764,0 -3.197,1.433 -3.197,3.198 v 6.395 c 0,1.765 1.433,3.198 3.197,3.198 z"
           style="fill:#8c8c8c"
           id="path53" />
        <path
           inkscape:connector-curvature="0"
           d="m 134.858,298.824 c 0,1.764 1.433,3.197 3.198,3.197 h 6.395 c 1.765,0 3.197,-1.433 3.197,-3.197 V 73.219 c 0,-1.765 -1.432,-3.198 -3.197,-3.198 h -6.395 c -1.765,0 -3.198,1.433 -3.198,3.198 z"
           style="fill:#8c8c8c"
           id="path55" />
        <path
           inkscape:connector-curvature="0"
           d="m 188.515,298.824 c 0,1.764 1.433,3.197 3.198,3.197 h 6.395 c 1.765,0 3.198,-1.433 3.198,-3.197 V 73.219 c 0,-1.765 -1.433,-3.198 -3.198,-3.198 h -6.395 c -1.765,0 -3.198,1.433 -3.198,3.198 z"
           style="fill:#8c8c8c"
           id="path57" />
        <path
           inkscape:connector-curvature="0"
           d="m 161.687,298.824 c 0,1.764 1.432,3.197 3.197,3.197 h 6.395 c 1.765,0 3.198,-1.433 3.198,-3.197 V 73.219 c 0,-1.765 -1.433,-3.198 -3.198,-3.198 h -6.395 c -1.765,0 -3.197,1.433 -3.197,3.198 z"
           style="fill:#8c8c8c"
           id="path59" />
        <path
           inkscape:connector-curvature="0"
           d="m 215.344,298.824 c 0,1.764 1.433,3.197 3.197,3.197 h 6.396 c 1.764,0 3.197,-1.433 3.197,-3.197 V 73.219 c 0,-1.765 -1.433,-3.198 -3.197,-3.198 h -6.396 c -1.764,0 -3.197,1.433 -3.197,3.198 z"
           style="fill:#8c8c8c"
           id="path61" />
        <path
           inkscape:connector-curvature="0"
           d="m 108.029,298.824 c 0,1.764 1.433,3.197 3.198,3.197 h 6.395 c 1.765,0 3.198,-1.433 3.198,-3.197 V 73.219 c 0,-1.765 -1.433,-3.198 -3.198,-3.198 h -6.395 c -1.765,0 -3.198,1.433 -3.198,3.198 z"
           style="fill:#8c8c8c"
           id="path63" />
      </g>
      <path
         inkscape:connector-curvature="0"
         d="m 232.655,278.269 c 15.274,0 27.674,-12.401 27.674,-27.674 V 121.448 c 0,-15.274 -12.4,-27.674 -27.674,-27.674 H 103.509 c -15.274,0 -27.675,12.4 -27.675,27.674 v 129.147 c 0,15.273 12.401,27.674 27.675,27.674 z"
         style="fill:#333333"
         id="path67" />
      <path
         inkscape:connector-curvature="0"
         d="m 220.739,175.532 c 0,6.734 -1.056,12.768 -3.167,18.104 -2.112,5.335 -5.122,9.886 -9.031,13.653 -3.909,3.766 -8.645,6.676 -14.209,8.731 -5.564,2.054 -11.855,3.167 -18.874,3.338 v 20.458 c 0,0.456 -0.114,0.856 -0.343,1.198 -0.228,0.342 -0.627,0.614 -1.198,0.813 -0.571,0.2 -1.327,0.357 -2.268,0.471 -0.942,0.114 -2.126,0.171 -3.553,0.171 -1.426,0 -2.61,-0.057 -3.552,-0.171 -0.942,-0.114 -1.683,-0.271 -2.226,-0.471 -0.542,-0.199 -0.941,-0.471 -1.198,-0.813 -0.257,-0.342 -0.385,-0.742 -0.385,-1.198 v -20.458 c -7.133,-0.171 -13.496,-1.199 -19.088,-3.082 -5.593,-1.883 -10.329,-4.608 -14.21,-8.174 -3.88,-3.567 -6.847,-7.947 -8.902,-13.139 -2.054,-5.193 -3.081,-11.157 -3.081,-17.89 v -43.741 c 0,-0.399 0.128,-0.77 0.385,-1.113 0.257,-0.342 0.656,-0.627 1.198,-0.856 0.542,-0.228 1.284,-0.399 2.226,-0.513 0.941,-0.114 2.125,-0.171 3.552,-0.171 1.427,0 2.611,0.057 3.552,0.171 0.942,0.114 1.698,0.285 2.269,0.513 0.57,0.229 0.97,0.514 1.198,0.856 0.228,0.343 0.343,0.714 0.343,1.113 v 42.457 c 0,4.736 0.627,9.002 1.883,12.796 1.255,3.795 3.138,7.019 5.649,9.673 2.511,2.654 5.692,4.708 9.544,6.163 3.852,1.455 8.346,2.24 13.482,2.354 v -73.443 c 0,-0.399 0.128,-0.77 0.385,-1.113 0.257,-0.342 0.685,-0.627 1.284,-0.856 0.599,-0.228 1.37,-0.399 2.311,-0.513 0.942,-0.114 2.069,-0.171 3.381,-0.171 1.427,0 2.611,0.057 3.553,0.171 0.941,0.114 1.697,0.285 2.268,0.513 0.571,0.229 0.97,0.514 1.198,0.856 0.229,0.343 0.343,0.714 0.343,1.113 v 73.443 c 5.136,-0.057 9.615,-0.842 13.439,-2.354 3.823,-1.512 7.004,-3.595 9.544,-6.249 2.539,-2.653 4.451,-5.849 5.735,-9.587 1.284,-3.737 1.926,-7.889 1.926,-12.454 v -42.799 c 0,-0.399 0.114,-0.77 0.342,-1.113 0.228,-0.342 0.628,-0.627 1.198,-0.856 0.571,-0.228 1.313,-0.399 2.226,-0.513 0.913,-0.114 2.111,-0.171 3.595,-0.171 1.37,0 2.525,0.057 3.467,0.171 0.941,0.114 1.683,0.285 2.225,0.513 0.542,0.229 0.942,0.514 1.199,0.856 0.256,0.343 0.385,0.714 0.385,1.113 z"
         style="fill:#ffffff;fill-rule:nonzero"
         id="path69" />
      <path
         inkscape:connector-curvature="0"
         d="m 220.739,175.532 c 0,6.734 -1.056,12.768 -3.167,18.104 -2.112,5.335 -5.122,9.886 -9.031,13.653 -3.909,3.766 -8.645,6.676 -14.209,8.731 -5.564,2.054 -11.855,3.167 -18.874,3.338 v 20.458 c 0,0.456 -0.114,0.856 -0.343,1.198 -0.228,0.342 -0.627,0.614 -1.198,0.813 -0.571,0.2 -1.327,0.357 -2.268,0.471 -0.942,0.114 -2.126,0.171 -3.553,0.171 -1.426,0 -2.61,-0.057 -3.552,-0.171 -0.942,-0.114 -1.683,-0.271 -2.226,-0.471 -0.542,-0.199 -0.941,-0.471 -1.198,-0.813 -0.257,-0.342 -0.385,-0.742 -0.385,-1.198 v -20.458 c -7.133,-0.171 -13.496,-1.199 -19.088,-3.082 -5.593,-1.883 -10.329,-4.608 -14.21,-8.174 -3.88,-3.567 -6.847,-7.947 -8.902,-13.139 -2.054,-5.193 -3.081,-11.157 -3.081,-17.89 v -43.741 c 0,-0.399 0.128,-0.77 0.385,-1.113 0.257,-0.342 0.656,-0.627 1.198,-0.856 0.542,-0.228 1.284,-0.399 2.226,-0.513 0.941,-0.114 2.125,-0.171 3.552,-0.171 1.427,0 2.611,0.057 3.552,0.171 0.942,0.114 1.698,0.285 2.269,0.513 0.57,0.229 0.97,0.514 1.198,0.856 0.228,0.343 0.343,0.714 0.343,1.113 v 42.457 c 0,4.736 0.627,9.002 1.883,12.796 1.255,3.795 3.138,7.019 5.649,9.673 2.511,2.654 5.692,4.708 9.544,6.163 3.852,1.455 8.346,2.24 13.482,2.354 v -73.443 c 0,-0.399 0.128,-0.77 0.385,-1.113 0.257,-0.342 0.685,-0.627 1.284,-0.856 0.599,-0.228 1.37,-0.399 2.311,-0.513 0.942,-0.114 2.069,-0.171 3.381,-0.171 1.427,0 2.611,0.057 3.553,0.171 0.941,0.114 1.697,0.285 2.268,0.513 0.571,0.229 0.97,0.514 1.198,0.856 0.229,0.343 0.343,0.714 0.343,1.113 v 73.443 c 5.136,-0.057 9.615,-0.842 13.439,-2.354 3.823,-1.512 7.004,-3.595 9.544,-6.249 2.539,-2.653 4.451,-5.849 5.735,-9.587 1.284,-3.737 1.926,-7.889 1.926,-12.454 v -42.799 c 0,-0.399 0.114,-0.77 0.342,-1.113 0.228,-0.342 0.628,-0.627 1.198,-0.856 0.571,-0.228 1.313,-0.399 2.226,-0.513 0.913,-0.114 2.111,-0.171 3.595,-0.171 1.37,0 2.525,0.057 3.467,0.171 0.941,0.114 1.683,0.285 2.225,0.513 0.542,0.229 0.942,0.514 1.199,0.856 0.256,0.343 0.385,0.714 0.385,1.113 z"
         style="fill:#ffffff;fill-rule:nonzero"
         id="path71" />
    </g>
  </g>
</svg>
